# xmcd
#
# Track frame offsets:
#	150
#	16185
#	37048
#	48244
#	60275
#	74484
#	92877
#	113396
#	130866
#	155832
#
# Disc length: 2322 seconds
#
# Revision: 0
# Processed by: cddbd v1.5.1PL2 Copyright (c) Steve Scherf et al.
# Submitted via: dBpowerAMP V4.0
#
DISCID=7d09100a
DTITLE=Tont - Cuerdas Vocales y Consonantes
DYEAR=2005
DGENRE=Blues
TTITLE0=El Destino de mi corazon
TTITLE1=Sagrada
TTITLE2=Creo en ti
TTITLE3=La cancion del cotilla
TTITLE4=Enero
TTITLE5=Amelie
TTITLE6=Medicamentos para amar
TTITLE7=La sinceridad como bandera
TTITLE8=Querida Marta
TTITLE9=A la rueda
EXTD=
EXTT0=
EXTT1=
EXTT2=
EXTT3=
EXTT4=
EXTT5=
EXTT6=
EXTT7=
EXTT8=
EXTT9=
PLAYORDER=
